<svg width="18" height="18" viewBox="0 0 18 18" fill="none" xmlns="http://www.w3.org/2000/svg">
<g clip-path="url(#clip0_1987_25870)">
<path d="M15.0981 6.82043H10.5823C10.3881 6.82043 10.2307 6.97783 10.2307 7.17199C10.2307 7.36616 10.3881 7.52355 10.5823 7.52355H13.7112V9.03526C13.7112 9.83004 13.0645 10.4767 12.2698 10.4767H5.73072C4.93595 10.4767 4.28932 9.83004 4.28932 9.03526V7.52355H7.41822C7.61238 7.52355 7.76978 7.36616 7.76978 7.17199C7.76978 6.97783 7.61238 6.82043 7.41822 6.82043H2.90234C2.70818 6.82043 2.55078 6.97783 2.55078 7.17199C2.55078 7.36616 2.70818 7.52355 2.90234 7.52355H3.5862V9.03526C3.5862 10.0769 4.33277 10.947 5.31883 11.1397L3.91596 17.5736C3.89329 17.6775 3.91895 17.7862 3.98564 17.869C4.05237 17.9518 4.15306 18 4.25944 18H5.78476C5.95013 18 6.09311 17.8848 6.12827 17.7232L6.92863 14.045H11.0718L11.8722 17.7232C11.9073 17.8848 12.0503 18 12.2157 18H13.741C13.8474 18 13.9481 17.9519 14.0148 17.869C14.0815 17.7861 14.1072 17.6775 14.0845 17.5736L12.6816 11.1397C13.6676 10.947 14.4142 10.0769 14.4142 9.03526V7.52355H15.0981C15.2922 7.52355 15.4496 7.36616 15.4496 7.17199C15.4497 6.97783 15.2923 6.82043 15.0981 6.82043ZM5.50147 17.2969H4.6959L6.02972 11.1798H6.83251L5.50147 17.2969ZM7.08163 13.3419L7.55209 11.1798H10.4484L10.9188 13.3419H7.08163ZM12.499 17.2969L11.168 11.1798H11.9708L13.3046 17.2969H12.499Z" fill="#696969"/>
<path d="M15.9269 4.49996C15.7328 4.49996 15.5754 4.65735 15.5754 4.85152C15.5754 5.08415 15.3861 5.27339 15.1535 5.27339C14.9209 5.27339 14.7316 5.08415 14.7316 4.85152C14.7316 4.65735 14.5742 4.49996 14.3801 4.49996H13.7665C13.6185 4.05134 13.1956 3.72653 12.698 3.72653C12.4631 3.72653 12.2449 3.79899 12.0643 3.92259C11.9393 3.80148 11.7692 3.72653 11.5818 3.72653H10.7205C10.5331 3.72653 10.3631 3.80148 10.238 3.92259C10.0574 3.79899 9.83918 3.72653 9.6043 3.72653C9.37061 3.72653 9.15338 3.79821 8.97331 3.92066C8.84802 3.79793 8.67677 3.72196 8.48795 3.72196H7.62663C7.43784 3.72196 7.26663 3.79793 7.14133 3.92059C6.9613 3.79818 6.74407 3.72653 6.51042 3.72653C6.27674 3.72653 6.05951 3.79821 5.87944 3.92063C5.75414 3.7979 5.58289 3.72192 5.39411 3.72192H4.53278C4.14993 3.72192 3.83845 4.03341 3.83845 4.41625V4.49993H2.07519C1.88103 4.49993 1.72363 4.65732 1.72363 4.85149C1.72363 5.04565 1.88103 5.20305 2.07519 5.20305H3.83841V5.27758C3.83841 5.66042 4.1499 5.97191 4.53275 5.97191H5.39407C5.58015 5.97191 5.74897 5.89794 5.87378 5.77834C6.05497 5.90318 6.27424 5.97648 6.51042 5.97648C6.74656 5.97648 6.96583 5.90318 7.14699 5.77841C7.27176 5.89794 7.44058 5.97191 7.62663 5.97191H8.48795C8.67403 5.97191 8.84285 5.89794 8.96766 5.77834C9.14885 5.90318 9.36812 5.97648 9.6043 5.97648C9.83921 5.97648 10.0574 5.90402 10.238 5.78041C10.3631 5.90152 10.5331 5.97648 10.7205 5.97648H11.5818C11.7692 5.97648 11.9393 5.90152 12.0643 5.78041C12.2449 5.90402 12.4632 5.97648 12.698 5.97648C13.1956 5.97648 13.6185 5.65167 13.7665 5.20305H14.0848C14.2327 5.65174 14.6559 5.97648 15.1535 5.97648C15.7738 5.97648 16.2785 5.47181 16.2785 4.85149C16.2785 4.65735 16.1211 4.49996 15.9269 4.49996ZM5.38532 5.26879H4.54157V4.42504H5.38532V5.26879ZM6.51042 5.27339C6.27779 5.27339 6.08855 5.08415 6.08855 4.85152C6.08855 4.61889 6.27779 4.42965 6.51042 4.42965C6.74305 4.42965 6.93229 4.61889 6.93229 4.85152C6.93229 5.08415 6.74305 5.27339 6.51042 5.27339ZM8.47916 5.26879H7.63541V4.42504H8.47916V5.26879ZM9.6043 5.27339C9.37167 5.27339 9.18242 5.08415 9.18242 4.85152C9.18242 4.61889 9.37167 4.42965 9.6043 4.42965C9.83692 4.42965 10.0262 4.61889 10.0262 4.85152C10.0262 5.08415 9.83692 5.27339 9.6043 5.27339ZM11.573 5.27339H10.7293V4.42965H11.573V5.27339ZM12.698 5.27339C12.4654 5.27339 12.2762 5.08415 12.2762 4.85152C12.2762 4.61889 12.4654 4.42965 12.698 4.42965C12.9307 4.42965 13.1199 4.61889 13.1199 4.85152C13.1199 5.08415 12.9307 5.27339 12.698 5.27339Z" fill="#696969"/>
<path d="M11.7017 2.37109C11.6132 2.54395 11.6816 2.75573 11.8545 2.84422C11.9057 2.87045 11.9604 2.88289 12.0143 2.88289C12.1421 2.88289 12.2654 2.813 12.3276 2.69143C12.5535 2.24994 12.5535 1.72277 12.3276 1.28128C12.2043 1.04036 12.2043 0.752672 12.3276 0.511746C12.416 0.338883 12.3476 0.127102 12.1748 0.0386136C12.002 -0.0498395 11.7901 0.0185746 11.7017 0.191403C11.4757 0.632895 11.4757 1.16006 11.7017 1.60155C11.8249 1.84248 11.8249 2.13016 11.7017 2.37109Z" fill="#696969"/>
<path d="M8.69339 2.37109C8.60494 2.54395 8.67335 2.75573 8.84618 2.84422C8.89747 2.87045 8.95214 2.88289 9.00604 2.88289C9.13383 2.88289 9.25709 2.813 9.31928 2.69143C9.54524 2.24994 9.54524 1.72277 9.31928 1.28128C9.19599 1.04036 9.19599 0.752672 9.31928 0.511746C9.40774 0.338883 9.33932 0.127102 9.16649 0.0386136C8.99373 -0.0498395 8.78184 0.0185746 8.69339 0.191403C8.46744 0.632895 8.46744 1.16006 8.69339 1.60155C8.81668 1.84248 8.81668 2.13016 8.69339 2.37109Z" fill="#696969"/>
<path d="M5.68268 2.37109C5.59423 2.54395 5.66264 2.75573 5.83547 2.84422C5.88676 2.87045 5.94143 2.88289 5.99532 2.88289C6.12312 2.88289 6.24637 2.813 6.30856 2.69143C6.53451 2.24994 6.53451 1.72277 6.30856 1.28128C6.18527 1.04036 6.18527 0.752672 6.30856 0.511746C6.39702 0.338883 6.3286 0.127102 6.15578 0.0386136C5.98298 -0.0498395 5.77113 0.0185746 5.68264 0.191403C5.4567 0.632895 5.4567 1.16006 5.68264 1.60155C5.80597 1.84248 5.80597 2.13016 5.68268 2.37109Z" fill="#696969"/>
<path d="M9.24953 7.42055C9.31492 7.35516 9.35254 7.26446 9.35254 7.172C9.35254 7.07954 9.31492 6.98883 9.24953 6.92344C9.18414 6.85805 9.09344 6.82043 9.00098 6.82043C8.90852 6.82043 8.81781 6.85805 8.75242 6.92344C8.68703 6.98883 8.64941 7.07954 8.64941 7.172C8.64941 7.26446 8.68703 7.35516 8.75242 7.42055C8.81781 7.48594 8.90852 7.52356 9.00098 7.52356C9.09344 7.52356 9.18414 7.48591 9.24953 7.42055Z" fill="#696969"/>
</g>
<defs>
<clipPath id="clip0_1987_25870">
<rect width="18" height="18" fill="white"/>
</clipPath>
</defs>
</svg>
